
        <svg xmlns="http://www.w3.org/2000/svg" xmlns:xlink="http://www.w3.org/1999/xlink" version="1.1" width="3192" height="3167.7873021474566" viewBox="0 0 3192 3167.7873021474566">
			
			<g transform="scale(9.6) translate(10, 10)">
				<defs id="SvgjsDefs1855"/><g id="SvgjsG1856" featureKey="rootContainer" transform="matrix(3.0663293604554758,0,0,3.0663293604554758,0.13628133105503454,-0.02809603534088609)" fill="#000"><path xmlns="http://www.w3.org/2000/svg" d="M101.8 83.6l-.2-29.5c0-6 .1-12.2-.2-18-.1-2.5-.1-5.1-.1-7.8 0-4.7-.1-9-.4-13.2l-.2-4.2c-.1-2.7-.2-5.3-.3-8V1h-7.3L77.2.7H66.6a25.7 25.7 0 0 0-5.5.6l-.6.3H49.8c-.1-.2-.8-.3-2.2-.4L34.3.3a130.5 130.5 0 0 0-18.8.1C12.3.6 9 .8 4.6.9L1.5.5H.4v1.2c-.2 2-.3 4.3-.3 7s0 6.8-.1 10.2 0 5.3 0 8a42.2 42.2 0 0 0 .4 6.9 20.3 20.3 0 0 1 .3 2.9c.1 3.8.4 4.8.8 5.5v17.6l-.2.5c.1 4-.1 7.6-.2 11.3-.3 7.4-.4 15-.1 22.5a25.5 25.5 0 0 0 .5 4.9v.8H6l-.2.2h5.4a51 51 0 0 1 8.6.4 21.1 21.1 0 0 0 3.8.3c6.6-.1 12.7.1 18.9.4h6.7l13.9-.3c6.1-.1 11.9-.5 18.3-.5h9.7l3.5-.2 2.8-.5h2.3v-1c.3 1.6.6 1.4 1-.8.1-.6.2-1.3.3-2s.3-2.6.5-3.4a51.3 51.3 0 0 0 .3-8.8z"/></g><g id="SvgjsG1857" featureKey="symbolFeature-0" transform="matrix(0.9122580852214365,0,0,0.9122580852214365,110.55475926116753,68.7036589758278)" fill="#ffffff"><path xmlns="http://www.w3.org/2000/svg" d="M46.3,75.9c-3.1,0.3-5.5-0.3-7.5-1.8c-3.1-2.3-3.4-6-3.4-6.2c0-0.7,0.5-1.3,1.2-1.4l0,0c0.7,0,1.3,0.5,1.4,1.2  c0,0.1,0.2,2.7,2.4,4.3c1.8,1.3,4.5,1.6,8,0.9c0.7-0.2,1.4,0.3,1.5,1c0.2,0.7-0.3,1.4-1,1.5C48,75.7,47.1,75.8,46.3,75.9z"/><path xmlns="http://www.w3.org/2000/svg" d="M72.3,48.1c-0.2,0-0.4,0-0.6,0.1c-0.8-1.7-2.6-2.8-4.6-2.8H56.5c-1.1,0-2.1,0.3-2.9,0.9c-1-0.5-2.2-0.9-3.7-1  c-1.5,0-3,0.3-4.4,1c-0.8-0.6-1.9-1-3-1H31.9c-2,0-3.8,1.2-4.6,2.9c-0.2,0-0.3-0.1-0.5-0.1c-0.9,0-1.6,0.7-1.6,1.6v1.5  c0,0.9,0.7,1.6,1.6,1.6v2.5c0,2.8,2.3,5.1,5.1,5.1h10.6c2.8,0,5.1-2.3,5.1-5.1v-5.1c0-0.3,0-0.5-0.1-0.8c0.8-0.3,1.5-0.5,2.2-0.4  c0.6,0,1.2,0.2,1.7,0.4c-0.1,0.3-0.1,0.6-0.1,0.9v5.1c0,2.8,2.3,5.1,5.1,5.1H67c2.8,0,5.1-2.3,5.1-5.1v-2.7c0,0,0,0,0.1,0  c0.9,0,1.6-0.7,1.6-1.6v-1.5C73.9,48.8,73.2,48.1,72.3,48.1z"/><path xmlns="http://www.w3.org/2000/svg" d="M79.3,49.6c-1.1-3.7-3-7-5.3-9.9c-1.2,0-2.7,0-4.3-0.1c3.3,3.3,5.7,7.5,6.9,12.3l0.5,1.8l1.7-0.7c0.2-0.1,0.4-0.1,0.6-0.2  c1.8-0.2,4.1,2.5,4.4,6.6c0.4,4.1-1.4,7.1-3.2,7.2c-0.6,0.1-1.2-0.2-1.8-0.7L77,64.4l-0.7,2.3c-3.3,10.6-12.6,18-23.6,19  c-13.8,1.2-26.3-8.1-29-21.7l-0.3-1.5l-1.5,0.3h-0.2c-1.9,0.2-4.3-2.7-4.7-7.1c-0.4-4.4,1.5-7.6,3.4-7.8c0.9-0.1,1.7,0.5,2.2,1  l1.7,1.7l0.9-2.2c1-2.4,3.7-6.4,3.7-6.4s-2.3,0.7-3.6,0.8l0,0c-0.3,0-0.5,0-0.8,0c-0.5,0.8-1,1.6-1.4,2.5C22,44.8,21,44.6,20,44.7  c-4,0.4-6.8,5.3-6.3,11.3c0.5,5.4,3.5,9.5,7,10c3.6,14.5,17.2,24.3,32.2,23c11.7-1,21.6-8.6,25.7-19.5c0.7,0.3,1.5,0.4,2.2,0.3  c3.9-0.3,6.6-5.1,6.1-10.7C86.5,53.4,83.1,49.3,79.3,49.6z"/><path xmlns="http://www.w3.org/2000/svg" d="M48,14.9l-0.4-3.2c-0.1-0.9-1-1.6-1.9-1.5s-1.6,1-1.5,1.9l0.4,3.2c-17.3,2.7-30.1,12-28.9,21.1c0.4,2.8,2.1,5.3,4.7,7.4  c3.4-4.5,14.6-8.9,28.3-10.7c13.4-1.8,25.1-0.5,29.8,2.8c1.9-2.6,2.8-5.3,2.4-8.1C79.6,18.8,65.1,13.2,48,14.9z"/></g><g id="SvgjsG1858" featureKey="nameFeature-0" transform="matrix(1.9202923101209377,0,0,1.9202923101209377,53.23477987921257,155.328966091396)" fill="#ffffff"><path d="M1.44 40 l5 -28.4 l-4 0 l0.64 -3.6 l12 0 l-0.64 3.6 l-4 0 l-5 28.4 l-4 0 z M12.34 40 l2.96 -16.8 c1.96 -11.16 2.76 -15.56 8.76 -15.56 s5.2 4.4 3.24 15.56 l-2.96 16.8 l-4 0 l1.64 -9.2 l-4 0 l-1.64 9.2 l-4 0 z M18.54 27.6 l4 0 l0.76 -4.4 c1.84 -10.4 2.16 -12.36 0.16 -12.36 s-2.32 1.96 -4.16 12.36 z M28.84 40 l5.64 -32 l4 0 l-2.24 12.68 l6.24 -12.68 l4 0 l-7.48 15.2 l1.84 16.8 l-4 0 l-1.52 -14 l-2.48 14 l-4 0 z M43.74 40 l5.64 -32 l9.2 0 l-0.56 3.2 l-5.2 0 l-1.84 10.4 l4.4 0 l-0.56 3.2 l-4.4 0 l-1.96 11.2 l5.2 0 l-0.72 4 l-9.2 0 z M56.24 40 l5.64 -32 l3.6 0 l0.68 20 l0.4 0 l7.72 -20 l3.6 0 l-5.64 32 l-4 0 l2.8 -16 l-5.64 16 l-2.4 0 l0.04 -16 l-2.8 16 l-4 0 z M76.74000000000001 40 l5.64 -32 l9.2 0 l-0.56 3.2 l-5.2 0 l-1.84 10.4 l4.4 0 l-0.56 3.2 l-4.4 0 l-1.96 11.2 l5.2 0 l-0.72 4 l-9.2 0 z M89.24000000000001 40 l5.64 -32 l6 0 c6 0 5.24 4.4 3.32 15.16 c-2.16 12.4 -2.96 16.84 -8.96 16.84 l-6 0 z M93.96000000000001 36 l2 0 c2.24 0 2.52 -1.68 4.48 -12.84 c1.76 -10 2.12 -11.96 -0.12 -11.96 l-2 0 z"/></g>
			</g>
		</svg>
	